<?xml version="1.0" standalone="no"?>
<!DOCTYPE svg PUBLIC "-//W3C//DTD SVG 20010904//EN"
 "http://www.w3.org/TR/2001/REC-SVG-20010904/DTD/svg10.dtd">
<svg version="1.0" xmlns="http://www.w3.org/2000/svg"
 width="6625.000000pt" height="5000.000000pt" viewBox="0 0 6625.000000 5000.000000"
 preserveAspectRatio="xMidYMid meet">

<g transform="translate(0.000000,5000.000000) scale(0.100000,-0.100000)"
fill="#000000" stroke="none">
<path d="M39560 38148 c-51 -35 -80 -83 -80 -135 0 -33 3 -42 13 -37 9 6 9 5
0 -8 -11 -12 -9 -21 10 -48 34 -50 70 -72 128 -78 l52 -5 27 -61 c15 -34 44
-112 65 -174 l37 -114 -28 -21 c-103 -79 -226 -231 -255 -316 -11 -31 -13 -32
-53 -26 -22 4 -68 14 -101 23 -33 8 -67 16 -75 17 -39 6 -45 15 -46 74 -2 108
-84 214 -187 242 -54 14 -132 8 -182 -16 -49 -24 -118 -93 -111 -112 3 -8 2
-12 -3 -9 -14 9 -31 -52 -31 -114 0 -61 24 -135 40 -125 5 3 7 0 4 -8 -8 -22
77 -92 136 -112 95 -32 190 -6 266 71 l41 42 41 -18 c23 -11 42 -16 42 -12 0
4 4 2 8 -4 9 -14 134 -87 149 -87 9 0 9 -6 1 -20 -23 -44 -11 -346 14 -331 7
5 8 2 3 -5 -8 -14 13 -101 25 -101 5 0 6 -8 3 -17 -6 -24 -102 -91 -185 -132
l-67 -33 -31 26 c-39 33 -85 34 -131 3 -69 -46 -61 -155 14 -190 45 -22 71
-21 93 1 10 9 20 15 23 13 11 -9 43 48 46 80 3 41 33 58 152 88 148 37 134 39
177 -23 42 -61 156 -173 206 -202 30 -18 32 -21 26 -67 -4 -26 -16 -76 -27
-112 l-20 -65 -43 0 c-48 0 -96 -27 -130 -73 -33 -44 -30 -142 6 -189 15 -19
44 -43 64 -53 74 -35 181 1 219 75 20 39 20 124 -1 144 -8 9 -12 16 -8 16 4 0
-5 13 -20 29 -21 22 -26 35 -21 51 6 19 54 105 84 149 7 11 19 10 72 -7 106
-34 163 -42 295 -40 105 2 128 0 130 -12 1 -8 11 -40 22 -71 l20 -56 -35 -18
c-68 -37 -123 -134 -123 -218 0 -48 20 -118 31 -111 5 3 6 -1 4 -8 -3 -8 11
-32 30 -53 20 -22 33 -33 30 -25 -4 8 2 4 13 -9 12 -15 24 -21 32 -16 8 5 11
4 6 -3 -6 -10 23 -22 86 -36 40 -9 120 12 171 44 43 27 98 102 102 139 1 9 6
24 10 34 20 47 -16 166 -64 212 -11 11 -29 28 -39 37 -29 28 -88 48 -141 48
-58 0 -61 5 -61 94 l0 62 68 29 c37 16 94 47 127 69 76 50 187 155 178 169 -3
6 -1 7 5 3 7 -4 12 -2 12 4 0 8 9 10 28 5 15 -4 34 -8 42 -9 8 0 17 -4 20 -7
3 -3 34 -17 70 -31 l65 -26 5 -53 c3 -30 14 -69 23 -86 20 -38 61 -68 78 -57
7 4 9 3 6 -3 -4 -6 3 -13 16 -17 100 -27 207 58 207 163 0 125 -144 210 -247
145 -19 -12 -26 -11 -54 4 -18 9 -39 23 -47 29 -7 7 -37 29 -67 48 l-53 36 24
60 c27 67 49 155 59 242 l6 57 45 0 c41 0 45 -2 64 -40 25 -50 70 -74 122 -67
49 7 75 29 89 78 20 64 -21 127 -95 145 -19 5 -27 3 -22 -4 4 -6 -2 -8 -14 -5
-15 4 -31 -6 -60 -36 -31 -32 -46 -41 -72 -41 -50 0 -58 11 -69 86 -5 38 -16
92 -24 121 -8 28 -15 53 -15 56 0 6 142 90 182 108 15 6 26 15 24 18 -11 17
52 3 74 -18 14 -12 43 -33 65 -44 53 -28 164 -30 215 -3 43 23 100 75 100 93
0 7 5 13 11 13 19 0 39 68 39 132 0 64 -28 148 -50 148 -5 0 -9 5 -8 11 4 18
-78 77 -125 90 -53 14 -143 7 -187 -16 -45 -23 -94 -75 -120 -126 -25 -48 -30
-143 -11 -191 9 -23 7 -28 -9 -33 -11 -4 -20 -11 -20 -16 0 -6 -4 -7 -10 -4
-5 3 -23 -1 -40 -10 -16 -8 -30 -13 -30 -11 0 3 -30 -4 -67 -15 -84 -24 -90
-24 -98 0 -3 10 -17 31 -30 45 -13 14 -21 26 -18 26 3 0 0 7 -7 15 -7 8 -16
12 -21 9 -5 -3 -6 1 -3 9 8 21 -133 146 -216 193 l-70 39 4 45 c4 41 19 121
32 161 2 9 14 19 24 22 11 3 18 1 14 -4 -10 -17 80 -9 123 12 47 23 87 65 76
82 -3 5 -1 7 4 4 14 -9 33 45 33 95 0 21 -7 55 -16 76 -17 42 -63 94 -76 86
-4 -3 -8 -1 -8 4 0 15 -57 32 -104 32 -48 0 -112 -28 -143 -61 -73 -79 -67
-214 12 -289 23 -22 24 -24 7 -54 -9 -17 -16 -34 -17 -37 0 -3 -7 -13 -16 -22
-9 -9 -29 -36 -45 -61 -20 -32 -34 -44 -46 -41 -41 14 -131 23 -199 22 l-74
-2 3 90 c3 88 4 91 33 107 41 24 63 79 49 122 -40 122 -220 103 -220 -24 0
-44 35 -104 56 -96 8 3 13 2 10 -3 -3 -5 1 -11 9 -15 16 -6 19 -46 9 -132 l-6
-51 -57 -13 c-31 -7 -82 -23 -114 -36 l-58 -23 -44 70 c-25 38 -66 107 -91
154 l-45 84 31 40 c18 22 29 44 25 50 -3 6 -1 11 6 11 19 0 6 106 -17 137 -36
48 -69 66 -131 70 -49 3 -65 0 -93 -19z m537 -193 c0 -8 -4 -12 -9 -9 -5 3 -6
10 -3 15 9 13 12 11 12 -6z m-222 -2294 c3 -5 2 -12 -3 -15 -5 -3 -9 1 -9 9 0
17 3 19 12 6z"/>
<path d="M36641 35174 c-193 -196 -351 -359 -351 -363 0 -3 67 -33 148 -65 81
-33 171 -70 199 -83 l52 -23 -109 -322 c-60 -177 -108 -324 -107 -325 4 -3
578 717 583 730 2 8 -77 39 -216 86 -120 41 -218 77 -216 80 11 20 342 582
358 609 11 17 17 32 15 32 -3 0 -163 -160 -356 -356z"/>
<path d="M27566 35164 c-219 -40 -378 -123 -472 -248 -89 -117 -119 -224 -111
-388 12 -228 132 -463 281 -549 63 -36 103 -37 210 -4 298 91 604 64 792 -71
194 -138 235 -222 348 -724 27 -119 67 -220 86 -220 6 0 28 13 48 29 20 16 64
43 97 61 111 59 200 29 273 -91 66 -110 99 -297 73 -419 -6 -30 -14 -77 -17
-105 -7 -71 -41 -305 -69 -473 -23 -136 -24 -146 -10 -228 13 -73 46 -189 58
-200 2 -2 29 36 60 84 80 124 210 278 419 494 205 211 283 314 362 473 129
261 174 466 163 739 -14 343 -134 609 -419 927 -182 202 -392 353 -585 420
-68 23 -202 49 -255 49 -34 0 -52 10 -138 80 -254 206 -488 322 -737 365 -108
19 -350 18 -457 -1z"/>
<path d="M37460 34057 c0 -1 32 -89 70 -196 39 -106 70 -199 70 -206 0 -7
-138 -72 -309 -146 -170 -74 -305 -135 -301 -137 9 -3 765 43 876 54 l61 5
-92 212 c-62 141 -89 214 -81 218 6 3 172 39 370 80 197 40 354 74 350 76 -7
2 -962 43 -1003 43 -6 0 -11 -1 -11 -3z"/>
<path d="M35963 33816 c-167 -32 -296 -95 -413 -200 -412 -372 -372 -1019 81
-1333 l57 -39 -125 -94 c-334 -249 -667 -416 -1051 -526 -204 -58 -383 -94
-727 -144 -732 -107 -1069 -197 -1450 -385 -388 -191 -686 -438 -885 -733 -40
-60 -44 -63 -74 -56 -92 20 -140 67 -216 212 -97 186 -185 242 -383 242 -287
0 -439 75 -525 258 -41 87 -48 95 -75 80 -44 -23 12 -164 103 -262 105 -112
185 -140 436 -155 242 -14 275 -33 359 -205 31 -62 71 -131 91 -154 30 -36
113 -85 176 -106 15 -4 13 -15 -22 -88 -36 -77 -110 -301 -110 -333 0 -8 -37
15 -84 53 -201 161 -405 238 -606 229 -133 -5 -179 -25 -315 -135 -147 -118
-259 -243 -373 -416 -116 -176 -203 -387 -296 -717 -105 -375 -446 -1750 -449
-1816 -1 -18 -5 -33 -9 -33 -5 0 -8 -9 -8 -20 0 -22 8 -24 42 -10 13 5 93 35
178 66 485 176 832 312 825 324 -3 4 4 6 15 3 11 -3 20 -1 20 4 0 5 6 10 13
10 15 0 173 76 199 96 11 9 22 45 33 112 31 196 84 388 129 467 26 46 111 151
150 187 17 14 55 49 86 76 30 28 107 88 169 135 63 47 136 106 163 131 26 25
48 45 48 43 0 -2 16 4 35 12 50 21 73 18 106 -15 33 -34 40 -91 13 -129 -8
-12 -12 -27 -8 -34 4 -7 3 -8 -4 -4 -13 8 -122 -91 -175 -159 l-32 -40 37 29
c21 15 35 33 31 39 -3 6 -1 7 5 3 6 -3 44 15 84 41 40 26 108 62 151 79 81 33
112 33 169 3 36 -19 51 -112 45 -274 -9 -226 8 -305 98 -460 164 -283 294
-455 489 -651 206 -205 373 -326 609 -439 500 -241 1078 -280 1737 -119 133
33 459 135 489 153 10 6 9 25 -3 91 -9 45 -16 87 -16 94 1 6 36 -92 79 -219
187 -551 414 -1110 621 -1530 114 -231 161 -312 185 -322 36 -13 865 540 1123
749 199 162 304 269 318 322 3 15 -31 89 -122 256 -651 1209 -1182 2026 -1518
2336 -93 86 -175 130 -260 140 -59 7 -59 7 -32 21 122 64 438 158 611 182 130
19 124 15 155 84 67 149 223 718 300 1097 41 204 40 202 69 148 57 -104 191
-256 281 -318 140 -96 272 -137 466 -147 l120 -6 -27 -136 c-16 -75 -62 -300
-103 -501 -41 -200 -74 -366 -72 -367 6 -6 337 -86 340 -82 34 42 287 513 421
784 319 647 453 979 560 1387 79 304 100 459 99 748 0 203 -3 249 -22 336 -47
219 -118 380 -264 601 -294 444 -656 625 -1222 611 l-143 -3 -12 99 c-33 289
-207 538 -468 669 -140 71 -364 103 -520 73z m300 -326 c93 -29 154 -65 222
-134 103 -103 155 -231 155 -376 0 -177 -79 -330 -223 -431 -100 -70 -178 -94
-307 -94 -131 0 -209 25 -312 98 -82 59 -161 165 -192 257 -24 70 -32 209 -16
283 15 75 69 182 121 241 132 150 361 215 552 156z m1413 -1051 c289 -74 495
-275 594 -579 60 -183 74 -296 75 -585 0 -156 -6 -311 -14 -387 -13 -125 -14
-127 -35 -116 -13 8 -109 15 -256 19 -146 4 -277 14 -345 25 -60 10 -124 18
-142 19 -17 0 -30 3 -28 6 2 3 -24 11 -58 18 -209 43 -454 154 -565 255 -83
77 -194 143 -365 215 l-40 17 49 29 c96 55 181 125 304 252 189 193 390 457
553 726 l72 118 61 -6 c34 -3 97 -14 140 -26z m-1371 -1060 c29 -8 58 -29 105
-78 40 -42 91 -83 135 -106 39 -21 103 -60 144 -87 40 -26 78 -45 85 -41 6 3
8 2 3 -2 -4 -5 1 -17 10 -27 16 -18 16 -22 -4 -81 -55 -163 -90 -252 -148
-374 -35 -72 -60 -135 -57 -139 4 -4 2 -4 -4 -1 -6 3 -21 -12 -33 -34 -23 -40
-23 -40 -49 -23 -68 43 -152 158 -174 237 -9 35 -17 47 -31 47 -43 0 -113 51
-155 113 -64 94 -84 156 -90 273 -7 161 39 273 131 315 48 21 76 23 132 8z"/>
<path d="M26268 30840 c-186 -33 -280 -73 -372 -159 -63 -60 -108 -127 -190
-288 -85 -164 -138 -225 -311 -353 -138 -102 -181 -144 -217 -213 -20 -36 -23
-57 -23 -152 0 -60 6 -147 12 -192 18 -138 0 -196 -112 -358 -104 -149 -110
-166 -124 -333 -12 -131 -32 -175 -146 -307 -154 -180 -208 -282 -245 -465
-24 -118 -43 -443 -28 -473 7 -13 18 -17 41 -15 40 4 45 21 46 153 2 201 35
375 96 502 42 90 79 144 156 231 125 140 161 218 173 376 9 114 30 168 116
295 111 165 134 253 111 426 -34 252 -6 311 220 466 168 115 222 177 311 356
39 80 90 171 113 202 100 136 261 207 526 231 176 16 231 28 227 48 -8 44
-195 54 -380 22z"/>
<path d="M27113 30309 c-18 -5 -34 -13 -38 -18 -3 -5 -13 -7 -23 -4 -25 6
-346 -101 -512 -171 -124 -53 -212 -97 -345 -171 -233 -130 -450 -315 -585
-495 -67 -91 -142 -237 -144 -281 -1 -15 -4 -25 -8 -22 -5 2 -8 2 -8 0 0 -2
-13 -56 -30 -118 -28 -107 -64 -281 -74 -359 -5 -39 -24 -167 -32 -217 -5 -33
-4 -33 35 -33 49 0 135 -31 212 -76 66 -39 221 -213 285 -322 52 -86 132 -328
178 -542 l37 -165 51 -46 c53 -48 233 -160 402 -250 l99 -52 -7 34 c-18 90
-76 488 -88 599 -21 200 -17 888 5 1065 64 500 169 861 352 1212 93 180 228
376 295 430 13 11 12 12 -5 12 -11 -1 -34 -5 -52 -10z"/>
<path d="M37815 28248 c4 -13 23 -53 41 -90 48 -96 172 -385 274 -640 l86
-218 43 183 c24 100 50 212 59 249 l16 67 -49 58 c-115 138 -302 305 -433 387
l-44 27 7 -23z"/>
<path d="M30897 26701 c-97 -48 -174 -91 -170 -96 5 -4 3 -5 -4 -2 -11 7 -76
-24 -622 -289 -129 -63 -235 -114 -236 -114 -2 0 -114 -54 -250 -120 -136 -66
-251 -120 -257 -120 -5 0 -6 -5 -2 -12 4 -7 3 -8 -4 -4 -12 7 -72 -19 -83 -36
-3 -5 -8 -8 -10 -7 -6 5 -81 -27 -103 -43 -17 -14 -14 -18 53 -67 39 -28 76
-49 82 -46 5 4 8 2 7 -3 -4 -15 151 -124 164 -116 6 4 8 3 5 -3 -5 -8 96 -87
210 -164 11 -7 65 -45 119 -84 53 -38 101 -69 106 -67 5 1 7 -1 4 -6 -6 -10
54 -48 69 -43 5 1 7 -1 2 -5 -8 -9 73 -65 84 -58 4 2 11 -1 15 -7 5 -8 2 -10
-7 -5 -8 4 -2 -2 13 -14 15 -12 30 -21 33 -20 3 0 15 -9 27 -20 12 -11 53 -41
92 -67 39 -26 74 -52 78 -57 4 -6 8 -7 8 -2 0 6 6 3 13 -6 6 -8 38 -34 71 -58
46 -33 60 -39 67 -29 21 35 110 300 103 310 -4 7 -3 9 3 6 12 -7 126 321 116
336 -3 6 -1 7 5 3 7 -4 12 -4 12 -1 0 4 43 139 95 300 52 162 97 302 98 312 2
10 9 29 14 43 29 70 154 503 149 516 -3 9 -1 12 4 9 6 -3 10 -2 10 4 0 5 3 16
6 25 3 9 2 16 -2 15 -5 0 -89 -40 -187 -88z"/>
<path d="M25235 26772 c-8 -8 -6 -402 3 -402 4 0 8 -156 9 -348 0 -191 4 -384
8 -430 l7 -83 41 24 c41 24 81 44 287 147 58 29 164 83 235 120 72 37 195 100
275 140 80 40 148 78 152 84 4 6 8 8 8 3 0 -4 11 0 24 8 l24 16 -284 282 -285
282 -102 21 c-124 26 -239 64 -329 109 -37 18 -69 30 -73 27z"/>
<path d="M45275 25931 c-116 -52 -147 -201 -62 -298 38 -44 82 -63 141 -63
l44 0 34 -82 c19 -46 52 -134 73 -197 l38 -114 -29 -21 c-100 -71 -213 -205
-271 -321 -20 -38 -36 -71 -37 -72 -3 -3 -215 45 -253 58 -31 10 -33 13 -33
58 0 87 -26 148 -89 212 -63 63 -125 89 -211 89 -155 0 -290 -137 -290 -295 0
-265 319 -394 507 -204 l51 51 98 -51 c55 -28 113 -59 130 -70 l32 -19 -5
-126 c-7 -140 6 -239 42 -346 l23 -69 -72 -50 c-40 -27 -104 -66 -141 -85
l-68 -35 -28 24 c-56 46 -128 44 -179 -6 -54 -54 -52 -129 5 -186 28 -28 40
-33 79 -33 85 0 136 47 136 123 0 32 4 36 49 56 45 19 240 71 267 71 6 0 29
-26 52 -57 61 -87 183 -204 269 -257 4 -3 -37 -182 -48 -207 -9 -22 -19 -28
-61 -33 -84 -12 -133 -47 -163 -118 -59 -142 76 -298 224 -258 50 13 109 63
127 107 30 70 12 164 -39 213 -15 14 -27 30 -27 36 0 10 93 171 109 187 4 4
39 -4 78 -17 107 -37 208 -49 341 -44 l119 5 28 -75 29 -75 -24 -16 c-84 -55
-133 -124 -148 -208 -33 -186 104 -348 293 -347 118 1 219 66 268 173 30 65
29 178 -2 243 -47 98 -147 166 -252 170 -30 2 -57 8 -61 13 -4 6 -8 45 -8 88
0 57 3 77 13 77 26 0 193 88 253 134 34 25 90 76 124 112 l62 67 67 -23 c36
-13 90 -34 119 -46 52 -23 52 -23 52 -69 0 -135 112 -224 242 -190 58 15 112
62 129 113 17 53 7 134 -23 180 -48 72 -150 100 -231 64 l-47 -21 -105 69
c-58 39 -105 72 -105 74 0 2 16 51 35 108 19 57 40 148 47 202 l12 98 29 -6
c16 -3 40 -6 52 -6 16 0 26 -10 38 -40 34 -88 149 -107 214 -36 28 30 33 43
33 86 0 43 -5 56 -33 86 -58 64 -164 55 -205 -17 -16 -27 -21 -29 -74 -29 -32
0 -58 4 -58 9 0 36 -25 174 -40 222 l-18 59 77 43 c42 25 104 59 139 76 l63
32 44 -39 c113 -99 293 -93 398 14 66 67 82 106 82 209 0 81 -3 95 -30 143
-52 94 -129 143 -240 150 -100 6 -168 -21 -234 -94 -62 -68 -86 -138 -78 -223
3 -31 9 -65 12 -77 8 -25 -16 -36 -177 -84 -98 -29 -104 -30 -115 -13 -121
174 -216 269 -348 346 -38 22 -72 42 -73 43 -4 3 14 123 29 193 l10 49 53 -5
c141 -15 256 89 256 229 -1 165 -171 275 -320 207 -92 -42 -134 -107 -134
-209 0 -71 14 -106 65 -165 l31 -35 -52 -83 c-87 -139 -74 -130 -176 -112 -47
8 -117 15 -154 15 l-67 0 -7 61 c-11 114 -10 122 30 144 44 24 64 61 64 120 0
95 -104 154 -189 107 -37 -20 -71 -73 -71 -110 0 -42 28 -92 65 -113 l35 -21
0 -92 c0 -96 -7 -116 -44 -116 -12 0 -66 -16 -121 -34 -55 -19 -100 -33 -101
-32 0 0 -27 43 -58 94 -31 52 -75 129 -98 173 l-40 79 30 35 c29 32 52 89 52
125 0 98 -94 190 -195 190 -22 0 -58 -9 -80 -19z"/>
<path d="M30908 22687 c-257 -101 -470 -185 -472 -188 -3 -3 59 -75 139 -159
80 -85 145 -158 145 -163 0 -5 -78 -93 -173 -196 -96 -102 -200 -215 -233
-250 l-59 -65 310 159 c171 87 363 186 427 220 l117 61 -170 158 c-93 86 -167
161 -164 166 3 5 133 99 288 209 300 212 325 230 317 230 -3 0 -215 -82 -472
-182z"/>
<path d="M29655 21651 c-112 -18 -254 -74 -339 -134 -64 -44 -161 -145 -206
-214 -195 -295 -170 -677 61 -954 l39 -47 -43 -6 c-88 -13 -553 -56 -807 -76
-455 -34 -602 -41 -1035 -47 -779 -11 -1299 32 -1728 144 -54 14 -100 23 -103
20 -3 -2 -360 -1701 -794 -3775 l-790 -3770 35 -3078 c19 -1693 37 -3079 39
-3081 7 -7 1366 -37 1372 -30 6 6 68 521 234 1947 238 2050 389 3446 405 3740
4 63 11 140 17 170 36 194 360 1050 868 2290 282 690 542 1315 551 1325 6 5 9
3 9 -6 0 -8 20 -183 45 -389 146 -1234 191 -1717 205 -2235 17 -609 73 -1517
190 -3130 82 -1118 283 -3712 296 -3804 l6 -43 683 3 c376 2 686 6 688 9 3 3
62 1038 132 2300 l127 2295 -7 760 c-7 754 -6 763 19 1110 54 725 116 1441
260 3005 183 1975 236 2867 207 3466 -13 261 -19 320 -62 594 l-31 195 23 14
c51 32 188 180 227 246 135 230 145 505 27 750 -96 198 -285 356 -495 415 -84
23 -247 33 -325 21z m268 -410 c80 -31 167 -114 209 -199 31 -62 33 -73 33
-172 0 -102 -1 -109 -38 -182 -78 -159 -252 -251 -417 -220 -273 50 -419 321
-306 567 47 103 129 178 238 217 71 25 199 20 281 -11z"/>
<path d="M38561 21267 c-30 -17 -91 -43 -135 -58 -44 -15 -82 -31 -83 -36 -3
-10 -161 -916 -219 -1258 -52 -307 -114 -615 -148 -739 -14 -49 -23 -93 -20
-98 3 -4 0 -8 -5 -8 -6 0 -11 -8 -11 -19 0 -20 -132 -416 -219 -661 -70 -195
-131 -371 -136 -393 -2 -9 -7 -22 -10 -27 -6 -10 -26 -65 -185 -520 -188 -537
-405 -1155 -536 -1525 -31 -88 -78 -223 -104 -300 -27 -77 -69 -198 -95 -270
l-46 -130 26 -870 27 -870 -65 -225 c-103 -355 -191 -703 -212 -840 -2 -14
-11 -58 -20 -98 -8 -40 -25 -134 -38 -210 -21 -129 -22 -165 -21 -632 0 -272
6 -630 13 -795 7 -165 13 -307 13 -315 0 -8 7 -177 15 -375 8 -198 14 -384 13
-413 0 -29 1 -56 4 -61 3 -4 8 -89 11 -187 5 -192 21 -526 80 -1764 3 -63 8
-140 10 -170 3 -30 7 -122 10 -205 3 -82 8 -171 11 -197 l6 -48 41 0 c91 1
1017 56 1021 61 9 9 29 198 24 224 -3 13 -2 23 1 20 10 -5 65 531 56 544 -3 6
-2 11 4 11 6 0 9 21 8 50 -1 27 0 51 4 52 11 6 68 593 57 599 -7 4 -6 8 2 11
8 2 13 28 14 71 0 37 5 67 9 67 4 0 7 17 7 38 -1 20 4 73 9 117 6 44 12 103
15 130 3 28 19 178 36 334 17 156 29 286 26 288 -3 3 -1 15 3 27 10 25 25 178
26 253 0 28 2 50 6 48 3 -2 13 78 23 178 10 100 19 196 21 212 7 52 17 148 21
205 3 30 29 280 59 555 30 275 57 534 60 575 3 41 8 89 10 105 2 17 17 161 34
320 17 160 35 333 41 385 6 52 12 115 15 140 2 25 11 110 19 190 28 266 64
625 65 640 0 8 7 71 15 140 8 69 17 150 20 180 3 30 23 228 45 440 53 511 89
864 156 1525 30 303 57 570 59 595 11 107 25 246 25 260 0 8 12 121 25 250 31
292 106 1070 106 1102 0 13 11 140 24 283 31 330 50 828 42 1105 -4 118 -9
298 -12 400 -3 102 -12 295 -20 430 -7 135 -16 283 -19 330 -2 47 -7 112 -10
145 -7 86 -13 165 -21 287 -4 59 -11 105 -15 102 -5 -3 -6 2 -3 11 8 19 -16
315 -25 314 -3 -1 -30 -15 -60 -32z"/>
<path d="M33518 16151 c2 -229 6 -462 10 -518 l7 -102 198 83 197 84 14 -27
c8 -14 76 -151 152 -303 76 -153 140 -276 142 -273 4 4 -97 899 -104 923 -2 8
-74 -23 -214 -93 l-210 -105 -6 28 c-4 15 -48 183 -98 373 l-91 346 3 -416z"/>
<path d="M33253 15198 c4 -40 9 -144 13 -230 7 -151 6 -158 -12 -158 -10 0
-179 25 -374 55 -195 30 -355 53 -356 52 -2 -2 851 -361 938 -395 4 -2 8 96 8
217 0 122 3 221 8 221 175 9 665 39 668 42 4 4 -874 269 -890 268 -5 0 -6 -32
-3 -72z"/>
<path d="M35035 14956 c-291 -57 -512 -266 -586 -557 -8 -33 -14 -101 -13
-174 1 -213 62 -356 218 -510 100 -99 177 -146 306 -187 64 -19 95 -23 210
-22 116 0 146 4 212 26 124 41 203 91 303 192 73 73 99 107 132 176 62 126 77
193 77 340 0 113 -3 133 -31 215 -44 128 -94 208 -187 300 -167 166 -418 244
-641 201z m309 -350 c89 -44 156 -112 198 -203 84 -179 22 -402 -143 -512 -85
-57 -151 -74 -259 -69 -74 3 -98 9 -154 37 -86 42 -156 113 -197 198 -57 120
-50 274 17 389 49 84 164 169 261 194 21 5 76 8 121 6 72 -3 94 -9 156 -40z"/>
<path d="M31840 6023 c-23 -54 -43 -105 -45 -113 -2 -8 -4 -16 -5 -17 -2 -2
-3 -6 -4 -10 -2 -5 -13 -41 -26 -82 -12 -40 -23 -93 -24 -116 0 -24 -4 -41 -8
-39 -9 6 -22 -179 -13 -205 3 -11 8 -38 10 -59 7 -65 44 -149 89 -199 l43 -48
-1047 3 -1047 2 -7 108 c-16 245 -58 457 -112 565 -54 105 -141 114 -334 33
-297 -124 -285 -121 -400 -120 -115 0 -187 15 -529 106 l-194 51 -86 -27
c-157 -51 -593 -217 -801 -306 -350 -149 -664 -315 -730 -385 l-23 -25 -537 0
-537 0 -6 178 c-13 383 -69 622 -157 667 -64 33 -135 17 -370 -85 -80 -34
-178 -69 -218 -77 -67 -14 -82 -14 -170 2 -106 19 -403 90 -544 131 l-90 26
-107 -37 c-393 -138 -719 -272 -1026 -425 -256 -127 -370 -196 -449 -272 -41
-40 -48 -51 -44 -77 l5 -31 -2486 -2 -2486 -3 -3 -167 -2 -168 13800 0 13800
0 -2 168 -3 167 -2770 5 -2770 5 -185 91 c-247 122 -418 197 -432 188 -6 -4
-8 -3 -5 2 5 9 -95 59 -133 66 -8 2 -17 6 -20 9 -5 6 -126 58 -145 62 -5 2
-15 6 -22 10 -6 4 -91 41 -188 82 l-177 74 -81 -19 c-225 -52 -549 -73 -772
-51 -148 15 -328 53 -443 91 -89 31 -92 31 -96 8 -1 -7 -10 -30 -19 -51 -57
-132 -102 -332 -94 -421 6 -67 34 -139 50 -129 6 3 7 1 3 -5 -5 -9 -486 -12
-1923 -12 l-1916 0 40 43 c21 23 53 62 70 87 40 59 144 271 137 282 -3 4 -1 8
4 8 7 0 32 64 32 82 0 3 -28 1 -62 -4 -104 -16 -309 -3 -421 26 -206 53 -402
170 -574 343 -62 62 -114 113 -117 113 -2 0 -23 -44 -46 -97z m5257 -1019 c-3
-3 -12 -4 -19 -1 -8 3 -5 6 6 6 11 1 17 -2 13 -5z m1931 -31 c-10 -2 -26 -2
-35 0 -10 3 -2 5 17 5 19 0 27 -2 18 -5z"/>
</g>
</svg>
